<svg width="1800" height="1800" viewBox="0 0 1800 1800" fill="none" xmlns="http://www.w3.org/2000/svg">
<path fill-rule="evenodd" clip-rule="evenodd" d="M649.999 150C742.046 150 816.665 224.619 816.665 316.667V816.666C816.665 908.714 742.046 983.333 649.999 983.333H316.666C224.619 983.333 150 908.714 150 816.666V316.667C150 224.619 224.619 150 316.666 150H649.999Z" fill="#FFC200"/>
<path fill-rule="evenodd" clip-rule="evenodd" d="M1483.33 150C1575.38 150 1650 224.619 1650 316.667V483.333C1650 575.381 1575.38 650 1483.33 650H1150C1057.95 650 983.331 575.381 983.331 483.333V316.667C983.331 224.619 1057.95 150 1150 150H1483.33Z" fill="#FFC200"/>
<path fill-rule="evenodd" clip-rule="evenodd" d="M649.999 1150C742.046 1150 816.665 1224.62 816.665 1316.67V1483.33C816.665 1575.38 742.046 1650 649.999 1650H316.666C224.619 1650 150 1575.38 150 1483.33V1316.67C150 1224.62 224.619 1150 316.666 1150H649.999Z" fill="#FFC200"/>
<path fill-rule="evenodd" clip-rule="evenodd" d="M1650 983.332C1650 891.284 1575.38 816.665 1483.33 816.665H1150C1057.95 816.665 983.336 891.284 983.336 983.332V1483.33C983.336 1575.38 1057.95 1650 1150 1650H1483.33C1575.38 1650 1650 1575.38 1650 1483.33V983.332Z" fill="#FF0004"/>
<path fill-rule="evenodd" clip-rule="evenodd" d="M1650 983.332C1650 891.284 1575.38 816.665 1483.33 816.665H1150C1057.95 816.665 983.336 891.284 983.336 983.332V1483.33C983.336 1575.38 1057.95 1650 1150 1650H1483.33C1575.38 1650 1650 1575.38 1650 1483.33V983.332Z" fill="#FF0004"/>
<path fill-rule="evenodd" clip-rule="evenodd" d="M1650 983.332C1650 891.284 1575.38 816.665 1483.33 816.665H1150C1057.95 816.665 983.336 891.284 983.336 983.332V1483.33C983.336 1575.38 1057.95 1650 1150 1650H1483.33C1575.38 1650 1650 1575.38 1650 1483.33V983.332Z" fill="#FF0004"/>
<path fill-rule="evenodd" clip-rule="evenodd" d="M1650 983.332C1650 891.284 1575.38 816.665 1483.33 816.665H1150C1057.95 816.665 983.336 891.284 983.336 983.332V1483.33C983.336 1575.38 1057.95 1650 1150 1650H1483.33C1575.38 1650 1650 1575.38 1650 1483.33V983.332Z" fill="#FF0004"/>
<path fill-rule="evenodd" clip-rule="evenodd" d="M1650 983.332C1650 891.284 1575.38 816.665 1483.33 816.665H1150C1057.95 816.665 983.336 891.284 983.336 983.332V1483.33C983.336 1575.38 1057.95 1650 1150 1650H1483.33C1575.38 1650 1650 1575.38 1650 1483.33V983.332Z" fill="#FF0004"/>
<path fill-rule="evenodd" clip-rule="evenodd" d="M1650 983.332C1650 891.284 1575.38 816.665 1483.33 816.665H1150C1057.95 816.665 983.336 891.284 983.336 983.332V1483.33C983.336 1575.38 1057.95 1650 1150 1650H1483.33C1575.38 1650 1650 1575.38 1650 1483.33V983.332Z" fill="#FF0004"/>
<path fill-rule="evenodd" clip-rule="evenodd" d="M1650 983.332C1650 891.284 1575.38 816.665 1483.33 816.665H1150C1057.95 816.665 983.336 891.284 983.336 983.332C983.336 1118.24 1108.42 1214.05 1225.68 1280.76C1236.51 1286.93 1246.91 1293.86 1256.67 1301.66C1312.04 1345.96 1330.55 1417.81 1333.8 1484.78C1337.88 1568.65 1399.37 1650 1483.33 1650C1575.38 1650 1650 1575.38 1650 1483.33V983.332Z" fill="#FFC200"/>
<path fill-rule="evenodd" clip-rule="evenodd" d="M1650 983.332C1650 891.284 1575.38 816.665 1483.33 816.665H1150C1057.95 816.665 983.336 891.284 983.336 983.332C983.336 1118.24 1108.42 1214.05 1225.68 1280.76C1236.51 1286.93 1246.91 1293.86 1256.67 1301.66C1312.04 1345.96 1330.55 1417.81 1333.8 1484.78C1337.88 1568.65 1399.37 1650 1483.33 1650C1575.38 1650 1650 1575.38 1650 1483.33V983.332Z" fill="#FFC200"/>
<path fill-rule="evenodd" clip-rule="evenodd" d="M1650 983.332C1650 891.284 1575.38 816.665 1483.33 816.665H1150C1057.95 816.665 983.336 891.284 983.336 983.332C983.336 1118.24 1108.42 1214.05 1225.68 1280.76C1236.51 1286.93 1246.91 1293.86 1256.67 1301.66C1312.04 1345.96 1330.55 1417.81 1333.8 1484.78C1337.88 1568.65 1399.37 1650 1483.33 1650C1575.38 1650 1650 1575.38 1650 1483.33V983.332Z" fill="#FFC200"/>
<path fill-rule="evenodd" clip-rule="evenodd" d="M1650 983.332C1650 891.284 1575.38 816.665 1483.33 816.665H1150C1057.95 816.665 983.336 891.284 983.336 983.332C983.336 1118.24 1108.42 1214.05 1225.68 1280.76C1236.51 1286.93 1246.91 1293.86 1256.67 1301.66C1312.04 1345.96 1330.55 1417.81 1333.8 1484.78C1337.88 1568.65 1399.37 1650 1483.33 1650C1575.38 1650 1650 1575.38 1650 1483.33V983.332Z" fill="#FFC200"/>
<path fill-rule="evenodd" clip-rule="evenodd" d="M1650 983.332C1650 891.284 1575.38 816.665 1483.33 816.665H1150C1057.95 816.665 983.336 891.284 983.336 983.332C983.336 1118.24 1108.42 1214.05 1225.68 1280.76C1236.51 1286.93 1246.91 1293.86 1256.67 1301.66C1312.04 1345.96 1330.55 1417.81 1333.8 1484.78C1337.88 1568.65 1399.37 1650 1483.33 1650C1575.38 1650 1650 1575.38 1650 1483.33V983.332Z" fill="#FFC200"/>
<path fill-rule="evenodd" clip-rule="evenodd" d="M1650 983.332C1650 891.284 1575.38 816.665 1483.33 816.665H1150C1057.95 816.665 983.336 891.284 983.336 983.332C983.336 1118.24 1108.42 1214.05 1225.68 1280.76C1236.51 1286.93 1246.91 1293.86 1256.67 1301.66C1312.04 1345.96 1330.55 1417.81 1333.8 1484.78C1337.88 1568.65 1399.37 1650 1483.33 1650C1575.38 1650 1650 1575.38 1650 1483.33V983.332Z" fill="#FFC200"/>
<path fill-rule="evenodd" clip-rule="evenodd" d="M1083.89 1394.73C1084.87 1386.57 1093.34 1381.69 1100.9 1384.92C1109.74 1388.7 1129.57 1397.69 1154.74 1412.22C1179.91 1426.76 1197.62 1439.44 1205.31 1445.21C1211.88 1450.13 1211.9 1459.9 1205.32 1464.84C1197.7 1470.56 1180.21 1483.09 1154.73 1497.8C1129.24 1512.52 1109.64 1521.4 1100.88 1525.14C1093.32 1528.36 1084.87 1523.47 1083.89 1515.33C1082.73 1505.81 1080.59 1484.2 1080.59 1455.02C1080.59 1425.85 1082.73 1404.25 1083.89 1394.73Z" fill="#FFC200"/>
</svg>
